<?xml version="1.0" encoding="UTF-8"?>
<svg id="Layer_1" data-name="Layer 1" xmlns="http://www.w3.org/2000/svg" xmlns:xlink="http://www.w3.org/1999/xlink" viewBox="0 0 281.87 281.87">
  <defs>
    <linearGradient id="linear-gradient" x1="194.22" y1="25.86" x2="78.54" y2="275.65" gradientUnits="userSpaceOnUse">
      <stop offset="0" stop-color="#dd297c"/>
      <stop offset=".96" stop-color="#68297c"/>
    </linearGradient>
  </defs>
  <circle cx="140.93" cy="140.93" r="140.43" style="fill: url(#linear-gradient);"/>
  <circle cx="141.05" cy="140.44" r="125.53" style="fill: #fff;"/>
  <path id="_79" data-name="79" d="M75.95,250.36c-12.85-3.49-22.68-11.73-28.49-23.9-3.41-7.15-3.54-7.77-3.54-17.92s.18-10.9,3.14-17.15c4.1-8.66,8.42-13.82,15.59-18.61,9.15-6.11,13.13-7,34.19-7.65l18.52-.57-6.09-4.51c-9.01-6.68-17.96-7.85-28.69-3.75-1.39.53-2.68.81-2.87.63s-.09-3.71.23-7.83c.75-9.89-.6-23.43-2.84-28.5-3.61-8.16-10.51-13.97-19.94-16.79-2.24-.67-4.06-1.37-4.06-1.57s1.24-2.82,2.76-5.82c4.3-8.52,5.84-14.96,5.84-24.38,0-13.13-3.89-25.05-11.6-35.56-1.54-2.1-2.34-3.96-1.79-4.15,1.98-.66,14.97,3.92,23.29,8.2,20.91,10.77,41.49,31.82,51.38,52.54l3.85,8.06-3.97,4.31c-5.83,6.33-7.99,11.8-8.03,20.41-.03,5.37.48,8.29,2.01,11.64,2.77,6.03,9.23,12.84,15.09,15.91,4.09,2.14,6.05,2.52,12.94,2.54,9.54.03,14.71-2.01,20.95-8.25,9.32-9.32,11.95-23.35,6.43-34.27-1.46-2.89-4.22-6.87-6.14-8.85l-3.48-3.59,3.16-6.45c10.94-22.3,31.43-43.56,51.92-53.86,8.21-4.13,21.23-8.78,23.31-8.32.94.2-.09,2.39-3.41,7.26-6.03,8.85-8.64,17.09-9.3,29.36-.63,11.68.66,18.56,5.07,26.86,1.79,3.38,3.26,6.34,3.26,6.58s-1.61.86-3.58,1.39c-5.68,1.53-13.74,6.87-17.16,11.36-5.13,6.75-6.45,12.86-6.25,29.03l.17,14.04-4.52-2.01c-9.23-4.11-20.03-2.03-28.57,5.52l-3.67,3.24,15.49.04c16.97.04,22.96.95,30.81,4.66,6.57,3.11,16.13,12,19.45,18.09,7.09,13.02,7.09,28.55,0,41.57-3.3,6.07-13.07,15.16-19.54,18.19-16.84,7.88-35.48,5.04-49.49-7.56-2.42-2.17-5-5.08-5.74-6.45l-1.34-2.5h-35.6l-3.47,4.65c-4.13,5.53-13.38,11.96-20.22,14.05-7.69,2.36-18.22,2.63-25.48.66M202.22,231.68c4.23-3.25,4.53-8.55.68-12.13-4.5-4.19-12.24-.59-12.24,5.71,0,5.72,7.23,9.74,11.55,6.42M94.11,221.37v-6.76l6.45.24,6.45.24.28-6.38.28-6.38h-13.47v-13.38h-13.38v13.38h-13.38v12.43h13.38v13.38h13.38v-6.76M187.81,212.8c1.54-2.89,1.07-7.47-.98-9.52-2.89-2.89-7.95-2.86-10.95.05-3.81,3.71-1.48,11.77,3.64,12.6,2.99.48,7.21-1.11,8.29-3.13M221.27,212.8c3.68-6.87-2.36-13.86-9.42-10.89-6.65,2.8-5.76,12.54,1.27,13.99,2.76.57,7.06-1.07,8.15-3.1M202.22,198.22c4.23-3.25,4.53-8.55.68-12.13-4.5-4.19-12.24-.59-12.24,5.71,0,5.72,7.23,9.74,11.55,6.42" style="stroke: #000;"/>
</svg>