<?xml version="1.0" encoding="UTF-8"?>
<svg id="Layer_1" data-name="Layer 1" xmlns="http://www.w3.org/2000/svg" viewBox="0 0 431.05 467.48">
  <path d="M423.61,340.25l-159.77-106.52,159.77-106.51c7.67-5.11,9.75-15.49,4.62-23.17C384.71,38.9,312,0,233.74,0,104.86,0,0,104.85,0,233.74s104.86,233.74,233.74,233.74c78.26,0,150.97-38.9,194.49-104.06,5.12-7.67,3.05-18.05-4.62-23.17ZM233.74,434.09c-110.47,0-200.35-89.88-200.35-200.35S123.27,33.39,233.74,33.39c61.48,0,118.97,28.02,156.87,75.7l-166.13,110.76c-4.65,3.1-7.43,8.31-7.43,13.89s2.79,10.8,7.43,13.89l166.13,110.75c-37.9,47.68-95.39,75.7-156.87,75.7Z" style="fill: #ff8c20;"/>
</svg>