<?xml version="1.0" encoding="UTF-8"?>
<svg id="Layer_1" data-name="Layer 1" xmlns="http://www.w3.org/2000/svg" viewBox="0 0 666.67 633.34">
  <path d="M0,66.67C0,29.85,29.85,0,66.67,0h533.33c36.82,0,66.67,29.85,66.67,66.67v366.67c0,36.82-29.85,66.67-66.67,66.67h-233.33v66.67h100c18.41,0,33.33,14.92,33.33,33.33s-14.92,33.33-33.33,33.33H200c-18.41,0-33.33-14.92-33.33-33.33s14.92-33.33,33.33-33.33h100v-66.67H66.67c-36.82,0-66.67-29.85-66.67-66.67V66.67ZM600,433.33V66.67H66.67v366.67h533.33Z" style="fill: #3ba96c;"/>
</svg>