<?xml version="1.0" encoding="UTF-8"?>
<svg id="Layer_1" data-name="Layer 1" xmlns="http://www.w3.org/2000/svg" viewBox="0 0 66.67 58.33">
  <path d="M29.18,26.25c0-2.3-1.87-4.17-4.17-4.17s-4.17,1.87-4.17,4.17,1.87,4.17,4.17,4.17,4.17-1.87,4.17-4.17Z" style="fill: #285ece;"/>
  <path d="M45.82,26.25c0-2.3-1.87-4.17-4.17-4.17s-4.17,1.87-4.17,4.17,1.87,4.17,4.17,4.17,4.17-1.87,4.17-4.17Z" style="fill: #285ece;"/>
  <path d="M23.18,36.95c1.08-.86,2.65-.68,3.51.4,1.56,1.96,3.95,3.2,6.64,3.2s5.08-1.25,6.64-3.2c.86-1.08,2.43-1.26,3.51-.4,1.08.86,1.26,2.43.4,3.51-2.46,3.1-6.27,5.09-10.55,5.09s-8.08-1.99-10.55-5.09c-.86-1.08-.68-2.65.4-3.51Z" style="fill: #285ece;"/>
  <path d="M33.33,0c1.38,0,2.5,1.12,2.5,2.5v5.83h18.33c4.14,0,7.5,3.36,7.5,7.5v8.33h.83c2.3,0,4.17,1.87,4.17,4.17v10c0,2.3-1.87,4.17-4.17,4.17h-.83v8.33c0,4.14-3.36,7.5-7.5,7.5H12.5c-4.14,0-7.5-3.36-7.5-7.5v-8.33h-.83c-2.3,0-4.17-1.87-4.17-4.17v-10c0-2.3,1.87-4.17,4.17-4.17h.83v-8.33c0-4.14,3.36-7.5,7.5-7.5h18.33V2.5c0-1.38,1.12-2.5,2.5-2.5ZM10,50.83c0,1.38,1.12,2.5,2.5,2.5h41.67c1.38,0,2.5-1.12,2.5-2.5V15.83c0-1.38-1.12-2.5-2.5-2.5H12.5c-1.38,0-2.5,1.12-2.5,2.5v35Z" style="fill: #285ece; fill-rule: evenodd;"/>
</svg>