<?xml version="1.0" encoding="UTF-8"?>
<svg id="Layer_1" data-name="Layer 1" xmlns="http://www.w3.org/2000/svg" viewBox="0 0 45 66.67">
  <path d="M16.68,40.4c1.24,0,2.25,1.12,2.25,2.5v3.35h3.02c1.24,0,2.25,1.12,2.25,2.5s-1.01,2.5-2.25,2.5h-3.02v3.36c0,1.38-1.01,2.5-2.25,2.5s-2.25-1.12-2.25-2.5v-3.36h-3.02c-1.24,0-2.25-1.12-2.25-2.5s1.01-2.5,2.25-2.5h3.02v-3.35c0-1.38,1.01-2.5,2.25-2.5Z" style="fill: #8b909b;"/>
  <path d="M30.95,51.26c-1.24,0-2.25,1.12-2.25,2.5s1.01,2.5,2.25,2.5h2.63c1.24,0,2.25-1.12,2.25-2.5s-1.01-2.5-2.25-2.5h-2.63Z" style="fill: #8b909b;"/>
  <path d="M28.7,43.73c0-1.38,1.01-2.5,2.25-2.5h2.63c1.24,0,2.25,1.12,2.25,2.5s-1.01,2.5-2.25,2.5h-2.63c-1.24,0-2.25-1.12-2.25-2.5Z" style="fill: #8b909b;"/>
  <path d="M0,7.5C0,3.36,3.02,0,6.75,0h31.5c3.73,0,6.75,3.36,6.75,7.5v51.67c0,4.14-3.02,7.5-6.75,7.5H6.75c-3.73,0-6.75-3.36-6.75-7.5V7.5ZM40.5,7.5v20.83c0,1.38-1.01,2.5-2.25,2.5H6.75c-1.24,0-2.25-1.12-2.25-2.5V7.5c0-1.38,1.01-2.5,2.25-2.5h31.5c1.24,0,2.25,1.12,2.25,2.5ZM6.75,35.83c-.79,0-1.55-.15-2.25-.43v23.76c0,1.38,1.01,2.5,2.25,2.5h31.5c1.24,0,2.25-1.12,2.25-2.5v-23.76c-.7.28-1.46.43-2.25.43H6.75Z" style="fill: #8b909b; fill-rule: evenodd;"/>
</svg>