<?xml version="1.0" encoding="UTF-8"?>
<svg id="Layer_1" data-name="Layer 1" xmlns="http://www.w3.org/2000/svg" viewBox="0 0 194.99 194.49">
  <path id="_1" data-name=" 1" d="M88.28,179.36c-.31-16.62.66-14.96-10.78-18.33-4.12-1.21-10.59-4.02-14.37-6.23l-6.87-4.02-10.65,10.62-10.66,10.62-5.95-6.01-5.95-6.02,10.23-10.26c5.62-5.64,10.22-10.89,10.22-11.66s-.64-2.11-1.43-2.98c-2.7-2.98-7.7-14.23-9.52-21.4l-1.82-7.18-15.11-.28-15.12-.28v-16.95h14.52c16.64,0,14.49,1.39,18.45-12,1.22-4.12,4.02-10.59,6.24-14.37l4.02-6.87-10.34-10.38-10.34-10.38,5.95-6.01,5.95-6.01,10.04,10.01c5.52,5.5,10.67,10.01,11.45,10.01s2.11-.64,2.98-1.43c2.98-2.7,14.23-7.7,21.4-9.52l7.18-1.82.5-14.86.5-14.87h17l.5,14.39c.4,11.45.81,14.54,2,15.13.82.4,5.32,1.91,10,3.34s10.9,4.19,13.84,6.12,5.85,3.52,6.48,3.52,5.66-4.5,11.19-10.01l10.04-10.01,5.95,6.01,5.95,6.01-10.23,10.26c-5.62,5.64-10.23,10.57-10.23,10.94s1.29,2.62,2.86,4.98c3.37,5.06,7.68,15.63,8.69,21.3,1.15,6.49,1.18,6.5,17.07,6.5h14.38v16.95l-14.64.28c-11.83.22-14.78.56-15.38,1.78-.4.82-1.91,5.32-3.34,10s-4.19,10.9-6.12,13.84-3.52,5.85-3.52,6.48,4.6,5.76,10.23,11.41l10.23,10.26-5.95,6.02-5.95,6.01-10.54-10.51c-5.8-5.78-10.95-10.51-11.45-10.51s-1.61.64-2.48,1.43c-2.98,2.7-14.23,7.7-21.4,9.52l-7.18,1.82-.28,15.11-.28,15.12h-17.89l-.28-14.64M109.96,146.47c18.17-4.73,32.75-19.54,37-37.56,10.11-42.89-34.83-77.42-73.76-56.67-19.93,10.62-30.85,35.44-25.17,57.22,7.04,27.02,35.34,43.94,61.93,37.01" style="fill: #b0b0b8; stroke: #737373;"/>
</svg>