<?xml version="1.0" encoding="UTF-8"?>
<svg id="Layer_2" data-name="Layer 2" xmlns="http://www.w3.org/2000/svg" viewBox="0 0 850 832.97">
  <path d="M358,620.17c0-11.41-9.25-20.67-20.67-20.67h-3.67c-11.41,0-20.67,9.25-20.67,20.67v87.67c0,11.41,9.25,20.67,20.67,20.67h3.67c11.41,0,20.67-9.25,20.67-20.67v-87.67Z" style="fill: #db5ba2; stroke: #db5ba2; stroke-miterlimit: 10; stroke-width: 4px;"/>
  <path d="M535,620.17c0-11.41-9.25-20.67-20.67-20.67h-3.67c-11.41,0-20.67,9.25-20.67,20.67v87.67c0,11.41,9.25,20.67,20.67,20.67h3.67c11.41,0,20.67-9.25,20.67-20.67v-87.67h0Z" style="fill: #db5ba2; stroke: #db5ba2; stroke-miterlimit: 10; stroke-width: 4px;"/>
  <path d="M811.35,270.26c-21.23-47.22-52.23-92.66-89.65-131.41-39.33-40.72-84.08-73.02-133-95.99-52.81-24.8-107.89-37.37-163.7-37.37s-110.9,12.57-163.7,37.37c-48.93,22.97-93.68,55.27-133,95.99-37.42,38.75-68.42,84.19-89.65,131.41-21.68,48.24-33.15,98.36-33.15,144.96,0,57.66,17.08,108.28,50.77,150.46,28.63,35.85,68.77,64.98,119.43,86.72-.32,28.54,5.87,65.15,31.62,98.37,39.47,50.9,111.78,76.71,214.91,76.71s178.6-26.05,218.43-77.42c25.31-32.63,31.64-68.53,31.5-96.75,51.71-21.85,92.58-51.32,121.62-87.71,33.65-42.17,50.71-92.77,50.71-150.39,0-46.59-11.47-96.72-33.15-144.96h0ZM815.63,415.22c0,13.43-1.06,26.42-3.14,38.94-63.46-29.45-107.58-94.7-107.58-170.48,0-33.68,8.72-65.27,23.97-92.57,54.84,68.62,86.74,149.99,86.74,224.12h0ZM424.77,96.49c101.29,0,183.4,83.81,183.4,187.2s-82.11,187.2-183.4,187.2-183.4-83.81-183.4-187.2,82.11-187.2,183.4-187.2h0ZM122.44,189.47c15.83,27.67,24.9,59.86,24.9,94.21,0,76.61-45.1,142.47-109.67,171.44-2.19-12.81-3.3-26.12-3.3-39.89,0-74.72,32.41-156.79,88.07-225.76h0ZM618.03,731.77c-15.3,19.72-37.5,35.3-66.01,46.29-34.31,13.23-77.97,19.94-129.79,19.94s-93.52-6.63-127.21-19.71c-28.03-10.88-49.92-26.3-65.06-45.83-33.08-42.65-26.04-93.18-21.49-112.92,5.6-24.22,30.64-41.98,74.45-52.79,34.99-8.64,79.8-12.66,141-12.66s106,4.02,141,12.66c43.81,10.81,68.86,28.57,74.46,52.79,4.53,19.61,11.51,69.81-21.37,112.21v.02Z" style="fill: #db5ba2; stroke: #db5ba2; stroke-miterlimit: 10; stroke-width: 11px;"/>
</svg>