<?xml version="1.0" encoding="UTF-8"?>
<svg id="Layer_1" data-name="Layer 1" xmlns="http://www.w3.org/2000/svg" viewBox="0 0 316 316">
  <path fill="#e70012" d="M167.11,0c.7,1.8,3.88.89,5.5,1,60.45,4.17,115.76,48.45,135.4,107.5,3.41,10.25,6.46,24.24,6.99,35,.08,1.61-.77,4.82,1,5.5v18c-1.8.7-.89,3.88-1,5.5-4.15,60.21-48.72,115.95-107.42,135.5-10.25,3.41-24.22,6.46-34.97,7-1.61.08-4.81-.77-5.5,1h-17.99c-.7-1.8-3.88-.89-5.5-1-16-1.1-33.27-5.82-47.97-12-39.98-16.82-73.71-54.24-87.44-95.5-3.41-10.25-6.46-24.24-6.99-35-.08-1.61.77-4.82-1-5.5.03-2.93-.53-16.88,0-18,1.71-3.65,1.2-11.6,2-16.5,1.22-7.49,3.46-16.38,6-24C26.75,52.81,77.03,11.08,132.63,2c4.9-.8,12.84-.28,16.49-2h17.99ZM128.64,82c-1.96,1.57-5.53,1.09-7.99,2-2.14.79-4.26,2.78-6,4-.23.16-.8-.15-1,0-3.13,2.35-5.1,5.81-7.49,8.5l-3,8v63l2,6c3.56,6.43,7.59,10.39,14.49,13.5.8.36,3.54,1.92,4,2,1.78.32,4.11-.24,6,0,.37.05.67,1,1,1h22.98l1.5-1.5v-105l-1.5-1.5h-24.98ZM166.61,82l-1.5,1.5v105l1.5,1.5h15.99c.33,0,.63-.95,1-1,3.12-.4,5.96.12,8.99-1,2.14-.79,4.26-2.78,6-4,.23-.16.8.15,1,0,2.01-1.5,5.31-5.52,6.5-7.5.45-.75,2.91-5.67,3-6,.37-1.35-.69-3.08,1-4-.56-21.57,1.19-44.13-1-65-1.97-2.03-2.69-6.03-4-8-2.82-4.25-8.27-7.16-12.49-9.5-2.27-.78-4.61-.58-6.99-1-.39-.07-.67-1-1-1h-17.99ZM84.67,208c-.37.07-.58.87-1,1-.59.19-1.37-.18-2,0-.47.13-1.32,1.54-2,2-.25.17-.8-.15-1,0-2.1,1.59-2.56,3.88-4.5,5.5.7,1.57-.95,2.71-1,3-.27,1.5-.27,6.5,0,8,.05.29,1.7,1.43,1,3l6.5,6.5c1.57-.7,2.71.95,3,1,1.59.28,8.51.32,9.99,0,.32-.07,2.36-1.62,3-2,.26-.16.78.14,1,0,2.56-1.7,3.38-4.59,5.5-6.5-.09-3.16,1.61-5.58,1-9-.07-.37-.88-.59-1-1-.18-.65.22-1.46,0-2-.16-.39-.81-.59-1-1-.14-.31.13-.78,0-1-1.38-2.32-5.48-5.09-7.49-6.5-1.57.7-2.71-.95-3-1-1.37-.24-5.63-.24-6.99,0ZM110.15,209v27.5l1.5,1.5h4.5v-18c1.45.69,2.97,2.27,4,3.5,2.97,3.54,6.15,8.24,8.99,12,2.07,2.74,3.62,2.78,6.99,2.5v-29h-6v17l-9.99-11.5c.03-2.31-3.51-2.99-3-5.5h-6.99ZM151.12,232v-21.5l-1.5-1.5h-5.5v29h21.98v-6h-14.99ZM178.1,209h-5.5l-1.5,1.5v26l1.5,1.5h5.5v-29ZM186.09,209v29h4.5l1.5-1.5v-16.5l15.49,18h4.5v-29h-5.5l-1.5,1.5v15.5l-13.49-17h-5.5ZM243.05,215l1-4.5-1.5-1.5h-22.48v29h22.48l1.5-1.5-1-4.5h-15.49l-1.5-1.5v-4.5h15.49c1.98,0,1.98-6,0-6h-15.49v-5h16.99Z"/>
  <path  fill="#e70012" d="M183.69,138.88c.85-.23,6.04-.21,6.99,0,.36.08.57.8,1,1,.31.14.78-.13,1,0,.53.32,4.41,4.19,4.5,4.5.18.63-.19,1.41,0,2,.13.41.93.63,1,1,.81,4.47-2.61,9.75-6.5,11.5-2.21-.21-3.52,1.58-6,1-.38-.09-.59-.87-1-1-.59-.19-1.37.18-2,0-.31-.09-4.18-3.97-4.5-4.5-.13-.22.14-.69,0-1-.2-.43-.92-.64-1-1-.22-.97-.22-5.03,0-6,.14-.63,2.23-2.69,2-4l4.5-3.5Z"/>
  <path  fill="#e70012" d="M146.12,94v88h-20.49c-.32,0-.58-.88-1-1-.65-.18-1.46.22-2,0-.39-.16-.59-.81-1-1-.31-.14-.78.13-1,0-.76-.45-4.95-4.68-5.5-5.5-.17-.26-1.82-3.52-2-4-.31-.84.53-2.2-1-3v-59c1.69-.92.63-2.65,1-4,.13-.46,1.54-1.32,2-2,.16-.24-.15-.79,0-1,.71-.97,4.63-4.98,5.5-5.5.22-.13.69.14,1,0,.41-.19.61-.84,1-1,.54-.22,1.35.18,2,0,.42-.12.67-1,1-1h20.49ZM122.14,109c.74,1.89-1.76,2.64-2,3.5s-.23,6.99,0,8c.08.36.8.57,1,1,.14.31-.13.78,0,1,.28.47,3.26,3.43,3.5,3.5.63.18,1.4-.19,2,0,.41.13.63.93,1,1,1.01.18,4.06.21,5,0,.36-.08.57-.8,1-1,.31-.14.78.13,1,0,.61-.36,4.13-3.89,4.5-4.5.13-.22-.14-.69,0-1,.2-.43.92-.64,1-1,.21-.94.18-3.99,0-5-.07-.37-.87-.59-1-1-.19-.59.18-1.37,0-2-.07-.24-3.03-3.22-3.5-3.5-.22-.13-.69.14-1,0-.41-.19-.61-.84-1-1-.79-.32-2.21.53-3-1l-8.49,3Z"/>
  <path  fill="#e70012" d="M95.11,230.02c-1.89-.74-2.64,1.76-3.5,2-.79.22-5.11.2-6,0-.36-.08-.57-.8-1-1-.31-.14-.78.13-1,0-3.82-2.28-3.74-7.36-3.5-11.5,1.52-1.1,3.04-3.63,4.5-4.5.22-.13.69.14,1,0,1.21-.55,1.73-1.52,4-1,.37.08.58.85,1,1,1.55.56,5.05,1.94,5.5,3.5.18.63-.19,1.41,0,2,.13.41.93.63,1,1,.67,3.68-1.48,5.39-2,8.5Z"/>
</svg>