<?xml version="1.0" encoding="UTF-8"?>
<svg id="Layer_1" data-name="Layer 1" xmlns="http://www.w3.org/2000/svg" viewBox="0 0 499.86 501.42">
  <path d="M200.44,200.02c.91.63,1.82,1.26,2.76,1.91,6.76,4.67,13.51,9.37,20.24,14.09q1.18.83,2.39,1.67c16.58,11.62,32.94,23.53,49.22,35.56,3.17,2.34,6.34,4.68,9.52,7.02,1.58,1.17,3.17,2.33,4.75,3.5,3.93,2.9,7.86,5.79,11.8,8.68,9.23,6.77,18.38,13.64,27.48,20.6,5.8,4.43,11.64,8.78,17.53,13.09,6.95,5.09,13.77,10.31,20.55,15.63,5.29,4.14,10.66,8.15,16.07,12.12,15.71,11.5,31.11,23.4,46.45,35.38,3.13,2.44,6.26,4.87,9.39,7.29,2.29,1.78,4.57,3.56,6.85,5.34,2.31,1.8,4.62,3.58,6.96,5.34,16.38,12.52,29.98,30.72,32.82,51.56,1.11,16.3-3.03,29.67-13.47,42.24-9.25,9.76-22.32,16.19-35.81,17.14-2.92.07-5.83.11-8.75.14-.98.03-1.96.06-2.97.09-18.25.15-36.34-7.06-53.65-12.17-2.81-.83-5.62-1.65-8.43-2.48-9.9-2.91-19.8-5.83-29.7-8.76-.79-.23-1.57-.46-2.38-.7-38.24-11.31-76.48-22.63-114.62-34.3q-1.24-.38-2.51-.77-171.94-52.63-195.64-96.11c-9.47-18-14.47-35.99-14.29-56.37,0-.72,0-1.44,0-2.19.2-32.39,13.37-61.2,36.34-83.89,47.53-45.33,111.38-35.13,161.09-.67ZM54.44,217.02c-.89.85-1.77,1.69-2.69,2.56-.76.8-1.53,1.61-2.31,2.44-.54.57-1.08,1.14-1.64,1.73-4.6,5.02-8.09,10.31-11.36,16.27-.51.89-1.01,1.79-1.53,2.71-11.58,21.59-13.81,46.87-7.07,70.34,1.5,4.84,3.37,9.4,5.6,13.95.45.93.9,1.86,1.37,2.82,3.47,6.73,7.74,12.42,12.63,18.18.49.63.98,1.25,1.49,1.9,4.17,5.2,9.14,9.18,14.51,13.1.86.64,1.73,1.28,2.62,1.93,11.1,7.49,23.85,11.61,36.38,16.07.7.25,1.41.5,2.13.76,74.54,26.46,150.91,48.08,226.78,70.39,8.21,2.41,16.42,4.84,24.63,7.27,6.05,1.79,12.11,3.58,18.16,5.36,3.56,1.05,7.13,2.1,10.69,3.16,3.91,1.16,7.81,2.31,11.72,3.45q1.7.51,3.44,1.03c15.8,4.61,30.85,7.2,46.46.59,7.25-4.12,13.92-10.57,16.53-18.64,2.09-10.44.33-19.82-5.04-28.91-1.73-2.58-3.56-5.02-5.49-7.45-.62-.79-1.25-1.58-1.89-2.39-9.38-11.09-21.58-19.56-33.18-28.16-4.5-3.34-8.89-6.79-13.24-10.32-6.27-5.07-12.71-9.88-19.22-14.64-6-4.39-11.93-8.85-17.84-13.36-.87-.67-1.74-1.33-2.64-2.02-3.55-2.71-7.1-5.43-10.65-8.15-9.99-7.65-20.02-15.23-30.17-22.67-5.97-4.38-11.85-8.85-17.73-13.35-7.24-5.55-14.56-10.97-21.98-16.29-4.87-3.49-9.68-7.04-14.46-10.65-7.82-5.9-15.76-11.64-23.71-17.35-2.28-1.64-4.56-3.29-6.83-4.93-10.1-7.32-20.25-14.55-30.46-21.71-.89-.63-1.79-1.26-2.71-1.9-45.84-32.2-103.71-61.15-151.29-13.1Z" style="fill: #01c6dd; stroke: #01c6dd; stroke-miterlimit: 10; stroke-width: 6px;"/>
  <path d="M454.87,32.7c19.31,16.26,31.88,38.19,38.57,62.32.34,1.19.68,2.38,1.03,3.6,2.17,9.24,2.28,18.51,2.34,27.96.01,1.29.03,2.58.04,3.91-.1,20.91-6.36,40.36-16.42,58.53-.53.96-1.06,1.93-1.61,2.92-16.72,28.05-44.88,46.67-76.02,54.86-8.04,1.94-16.13,2.76-24.37,3.22-.92.06-1.83.12-2.77.18-30.73.94-59.94-10.67-83.23-30.18-.69-.55-1.38-1.11-2.09-1.68-5.78-4.79-10.35-10.39-14.91-16.32-.6-.77-1.19-1.54-1.81-2.33-19.97-27.08-27.12-60.54-22.42-93.7,5.59-32.4,23.69-61.63,50.43-80.75,47.68-32.58,108.95-28.77,153.22,7.45ZM300.63,54.33c-18.61,19.49-28.68,44.9-29.44,71.69.7,24.62,8.47,46.98,24.25,66,.7.86,1.39,1.72,2.11,2.61,16.1,18.96,39.48,30.03,63.89,33.39,29.55,2.32,56.76-5.36,79.48-24.77.83-.73,1.66-1.47,2.52-2.23.69-.59,1.37-1.18,2.08-1.79,17.77-16.4,29.15-42.66,30.16-66.69.67-30.83-8.94-56.19-30.24-78.52q-.79-.9-1.59-1.82c-16.31-17.89-42.82-26.76-66.38-28.14-29.01-.69-55.94,10.31-76.84,30.27Z" style="fill: #01c6dd; stroke: #01c6dd; stroke-miterlimit: 10; stroke-width: 6px;"/>
  <path d="M149.44,249.02c11.36,13.97,15.38,28.13,14,46-2.4,13.63-10.12,25.62-21.34,33.68-12.86,8.16-26.66,11.14-41.72,8.1-14.19-3.77-24.8-11.55-32.94-23.78-6.94-12.35-9.09-26.42-5.88-40.3,4.47-13.78,12.84-25.89,25.88-32.7,21.6-9.89,43.96-6.84,62,9ZM88.44,267.02c-6.24,8.05-6.88,16.09-6,26,1.89,7.62,6.88,14.48,13.57,18.57,7.78,3.96,14.91,5.88,23.65,3.93,2.02-.71,3.87-1.54,5.78-2.5q1.02-.49,2.06-1c7.27-3.97,11.16-10.18,13.88-17.88,2.24-8.67.73-16.22-3.55-23.97-3.85-6-9.72-10.36-16.07-13.46-13.27-2.75-24.05.47-33.31,10.31Z" style="fill: #01c6dd; stroke: #01c6dd; stroke-miterlimit: 10; stroke-width: 4px;"/>
  <path d="M381.44,44.02c2.83,2.83,2.73,5.07,3,9-1.06,4.55-3.13,6.5-7,9-3.13.79-6.29,1.1-9.5,1.44-17.81,2.3-32.93,9.5-44.5,23.56-7.82,11.08-12.13,23-13.23,36.48-.5,5.39-1.83,8.85-5.96,12.39-3.85,1.54-6.88,1.36-10.81.12-2.38-1.89-3.65-3.3-5-6-1.59-20.94,4.86-41.27,18.13-57.63,14.45-16.49,52.2-44.45,74.87-28.37Z" style="fill: #01c6dd; stroke: #01c6dd; stroke-miterlimit: 10; stroke-width: 4px;"/>
</svg>