<?xml version="1.0" encoding="UTF-8"?>
<svg id="Layer_1" data-name="Layer 1" xmlns="http://www.w3.org/2000/svg" viewBox="0 0 20.34 14.99">
  <path d="M7.47,3.23c.41,0,.75.34.75.75v1h1c.41,0,.75.34.75.75s-.34.75-.75.75h-1v1.01c0,.41-.34.75-.75.75s-.75-.34-.75-.75v-1.01h-1.01c-.41,0-.75-.34-.75-.75s.34-.75.75-.75h1.01v-1c0-.41.34-.75.75-.75Z" style="fill: #fd452e;"/>
  <path d="M12.65,7.24c0-.41.34-.75.75-.75h.88c.41,0,.75.34.75.75s-.34.75-.75.75h-.88c-.41,0-.75-.34-.75-.75Z" style="fill: #fd452e;"/>
  <path d="M13.4,3.48c-.41,0-.75.34-.75.75s.34.75.75.75h.88c.41,0,.75-.34.75-.75s-.34-.75-.75-.75h-.88Z" style="fill: #fd452e;"/>
  <path d="M4.57.51C8.27-.17,12.06-.17,15.76.51l1.57.29c.97.18,1.71.97,1.82,1.94l1.17,9.73c.16,1.34-.89,2.52-2.23,2.52h-2.1c-.78,0-1.51-.4-1.92-1.07l-1.43-2.32c-.14-.22-.38-.36-.64-.36h-3.67c-.26,0-.5.13-.64.36l-1.43,2.32c-.41.66-1.13,1.07-1.92,1.07h-2.1C.9,14.99-.14,13.82.02,12.48L1.18,2.75c.12-.98.86-1.77,1.82-1.94l1.57-.29ZM15.49,1.99c-3.52-.65-7.12-.65-10.64,0l-1.57.29c-.32.06-.57.32-.61.65l-1.17,9.73c-.05.45.3.84.74.84h2.1c.26,0,.5-.13.64-.36l1.43-2.32c.41-.66,1.13-1.07,1.92-1.07h3.67c.78,0,1.51.4,1.92,1.07l1.43,2.32c.14.22.38.36.64.36h2.1c.45,0,.8-.39.74-.84l-1.17-9.73c-.04-.33-.29-.59-.61-.65l-1.57-.29Z" style="fill: #fd452e; fill-rule: evenodd;"/>
</svg>