<?xml version="1.0" encoding="UTF-8"?>
<svg xmlns="http://www.w3.org/2000/svg" viewBox="0 0 512 258.25">
  <g id="Layer_1" data-name="Layer 1" image-rendering="optimizeQuality" shape-rendering="geometricPrecision" text-rendering="geometricPrecision">
    <path d="M472.06,38.53v29.62h27.84c3.36,0,6.38,1.37,8.55,3.55,2.19,2.19,3.55,5.25,3.55,8.55v97.76c0,3.32-1.39,6.37-3.56,8.54-2.17,2.16-5.22,3.56-8.54,3.56h-27.84v29.61c0,21.2-17.35,38.53-38.53,38.53H38.53c-21.2,0-38.53-17.32-38.53-38.53V38.53C0,17.35,17.37,0,38.53,0h395c21.22,0,38.53,17.31,38.53,38.53ZM402.18,48.54c8.57,0,15.59,7.13,15.59,15.59v129.99c0,8.46-7.13,15.59-15.59,15.59H69.88c-8.46,0-15.58-7.02-15.58-15.59V64.13c0-8.57,7.01-15.59,15.58-15.59,0,0,332.3,0,332.3,0ZM446.6,216.95V41.3c0-8.69-7.15-15.84-15.83-15.84H41.3c-8.71,0-15.84,7.13-15.84,15.84v175.65c0,8.68,7.17,15.84,15.84,15.84h389.47c8.69,0,15.83-7.12,15.83-15.84h0Z" style="fill: #fff;"/>
  </g>
</svg>