<?xml version="1.0" encoding="UTF-8"?>
<svg xmlns="http://www.w3.org/2000/svg" viewBox="0 0 512 258.25">
  <g id="Layer_1" data-name="Layer 1" image-rendering="optimizeQuality" shape-rendering="geometricPrecision" text-rendering="geometricPrecision">
    <path d="M472.06,38.53v29.62h27.84c3.36,0,6.38,1.38,8.55,3.55,2.27,2.27,3.54,5.34,3.55,8.55v97.76c0,3.32-1.39,6.37-3.56,8.54-2.17,2.17-5.22,3.56-8.54,3.56h-27.84v29.62c0,21.2-17.36,38.53-38.53,38.53H38.53c-21.21,0-38.53-17.32-38.53-38.53V38.53C0,17.35,17.37,0,38.53,0h395c21.22,0,38.53,17.32,38.53,38.53h0ZM153.61,48.54h70.07v161.34h-70.07V48.54ZM250.98,48.54h70.07v161.34h-70.07V48.54ZM65.82,48.54h58.54v161.34h-58.54c-6.25,0-11.52-5.19-11.52-11.52V60.07c0-6.34,5.18-11.53,11.52-11.53ZM446.6,216.95V41.3c0-8.69-7.15-15.83-15.83-15.83H41.3c-8.71,0-15.83,7.13-15.83,15.83v175.66c0,8.68,7.16,15.84,15.83,15.84h389.47c8.7,0,15.83-7.12,15.83-15.84h0Z" style="fill: #fff;"/>
  </g>
</svg>