<?xml version="1.0" encoding="UTF-8"?>
<svg xmlns="http://www.w3.org/2000/svg" viewBox="0 0 512 248.21">
  <g id="Layer_1" data-name="Layer 1" image-rendering="optimizeQuality" shape-rendering="geometricPrecision" text-rendering="geometricPrecision">
    <g>
      <path d="M472.07,209.67v-24.6h27.84c6.66,0,12.1-5.44,12.1-12.1v-97.76c0-6.63-5.47-12.1-12.1-12.1h-27.84v-24.59c0-21.19-17.36-38.53-38.53-38.53h-121.44l-4.67,25.46h123.34c8.7,0,15.83,7.12,15.83,15.83v165.61c0,8.68-7.15,15.84-15.83,15.84h-157.42l-15.87,25.46h176.06c21.21,0,38.53-17.32,38.53-38.53h0ZM213.25,0H38.53C17.33,0,0,17.32,0,38.53v171.14c0,21.18,17.37,38.53,38.53,38.53h120.73l6.66-25.46H41.3c-8.71,0-15.83-7.13-15.83-15.84V41.3c0-8.67,7.16-15.83,15.83-15.83h156.28S213.25,0,213.25,0Z" style="fill: #fff;"/>
      <path d="M264.06,96.42h37.74c8.01.02,12.57,7.2,8.23,12.41l-105.39,135.59c-5.67,7.44-20.32,3.04-18.18-5.7l28.72-87.99-44.77.61c-7.74.11-12.51-6.6-8.68-11.94L265.75,3.83c5.49-7.3,19.7-3.39,18.32,5.15l-20.01,87.44Z" style="fill: #ef4136;"/>
    </g>
  </g>
</svg>