<?xml version="1.0" encoding="UTF-8"?>
<svg id="a" xmlns="http://www.w3.org/2000/svg" version="1.1" viewBox="0 0 356.94 246.86">
  <!-- Generator: Adobe Illustrator 29.5.1, SVG Export Plug-In . SVG Version: 2.1.0 Build 141)  -->
  <path fill="#FFFFFF" d="M356.51,192.64c-11.08-70.43-23.94-158.08-39.61-163.63-7.59-13.74-12.32-26.64-65.55-29.01-5.7.15-16.96,7.7-16.96,7.7-57.87-1.71-53.65-1.69-111.5-.01C122.88,7.69,111.67.16,105.97,0,52.82,2.38,48.07,15.19,40.52,28.82c-13.1,5.5-22.34,54.57-31.64,111.82-2.75,16.92-5.5,34.56-8.36,51.99-1.08,9.02-.49,18.22,2.1,26.96,4.56,23.04,35.73,39.91,54.92,14.77l24.44-47.39s6.17-13.33,21.23-13.33c37.53,0,113.09,0,150.62,0,15.06,0,21.23,13.33,21.23,13.33l24.44,47.39c10.22,15.96,31.87,13.79,39.86,7.4,15.78-10.69,18.91-31.63,17.16-49.13h0ZM87.51,97.39c-10.56,0-19.12-8.56-19.12-19.12s8.56-19.12,19.12-19.12,19.12,8.56,19.12,19.12-8.56,19.12-19.12,19.12ZM151.12,128.52c0,1.78-1.45,3.23-3.23,3.23h-11.16c-.81,0-1.46.65-1.46,1.46v11.16c0,1.78-1.45,3.23-3.23,3.23h-10.25c-1.78,0-3.23-1.45-3.23-3.23v-11.16c0-.81-.65-1.46-1.46-1.46h-11.16c-1.78,0-3.23-1.45-3.23-3.23v-10.25c0-1.78,1.45-3.23,3.23-3.23h11.16c.81,0,1.46-.66,1.46-1.46v-11.16c0-1.78,1.45-3.23,3.23-3.23h10.25c1.78,0,3.23,1.45,3.23,3.23v11.16c0,.81.65,1.46,1.46,1.46h11.16c1.78,0,3.23,1.45,3.23,3.23v10.25ZM220.79,141.64c-10.56,0-19.12-8.56-19.12-19.12s8.56-19.12,19.12-19.12,19.12,8.56,19.12,19.12-8.56,19.12-19.12,19.12ZM239.13,89.77c-6.36,0-11.51-5.15-11.51-11.51s5.15-11.51,11.51-11.51,11.51,5.15,11.51,11.51-5.15,11.51-11.51,11.51ZM264.14,111.91c-6.36,0-11.51-5.15-11.51-11.51s5.15-11.51,11.51-11.51,11.51,5.15,11.51,11.51-5.15,11.51-11.51,11.51ZM264.14,67.63c-6.36,0-11.51-5.15-11.51-11.51s5.15-11.51,11.51-11.51,11.51,5.15,11.51,11.51-5.15,11.51-11.51,11.51ZM290.11,89.77c-6.36,0-11.51-5.15-11.51-11.51s5.15-11.51,11.51-11.51,11.51,5.15,11.51,11.51-5.15,11.51-11.51,11.51Z"/>
</svg>