<?xml version="1.0" encoding="UTF-8"?>
<svg id="Layer_1" data-name="Layer 1" xmlns="http://www.w3.org/2000/svg" viewBox="0 0 980 690.77">
  <path fill="#ffffff" d="M980,200.84v1l-97.49,96.82c-1.65.01-20.37-18.61-23.5-21.33-141.08-122.86-334.39-168.83-516.23-119.2-91.85,25.07-177.09,73.55-244.42,140.64L0,201.84v-1c29.22-27.88,59.5-53.69,92.68-76.82,235.7-164.25,551.11-164.99,789.04-4.41,35.51,23.97,67.35,51.73,98.28,81.22Z"/>
  <path fill="#ffffff" d="M462.79,250.13c119-4.94,224.23,27.71,315.68,103.73,3.71,3.08,25.04,20.9,24.45,24.34l-96.66,94.52-2.21-.36c-50.71-44.47-116.06-78.9-184.57-83.5-83.6-5.62-153.91,13.98-220.39,64.59-5.62,4.28-17.99,16.68-23.15,18.92-2.62,1.14-4.99-1.42-6.96-3.01-7.82-6.36-17.89-17.12-25.52-24.48-22.2-21.44-43.3-44.06-65.53-65.48l-.5-3.56c10.28-8.71,19.69-18.36,30.08-26.96,68.39-56.61,166.27-95.03,255.27-98.73Z"/>
  <path fill="#ffffff" d="M627.99,551.86l-137.63,138.91-138.36-137.91c8.08-5.3,14.99-12.76,23.09-18.43,60.88-42.53,142.97-47.53,208.58-12.76,15.94,8.45,29.62,19.93,44.32,30.19Z"/>
</svg>